<?xml version="1.0" encoding="utf-8"?>
<!-- Generator: Adobe Illustrator 23.1.0, SVG Export Plug-In . SVG Version: 6.00 Build 0)  -->
<svg version="1.1" id="Layer_1" xmlns="http://www.w3.org/2000/svg" xmlns:xlink="http://www.w3.org/1999/xlink" x="0px" y="0px"
	 viewBox="0 0 974.8 674.1" style="enable-background:new 0 0 974.8 674.1;" xml:space="preserve">
<style type="text/css">
	.st0{fill:#2F2E41;}
	.st1{fill:#FFB9B9;}
	.st2{fill:#E6E6E6;}
	.st3{fill:#FFFFFF;}
	.st4{fill:#1C2E4A;}
	.st5{fill:#3F3D56;}
	.st6{fill:#DD0303;}
	.st7{font-family:'Montserrat-Regular';}
	.st8{font-size:14px;}
	.st9{letter-spacing:22.4;}
	.st10{letter-spacing:31.4;}
	.st11{letter-spacing:16.8;}
	.st12{letter-spacing:13.5;}
	.st13{letter-spacing:14.6;}
</style>
<path class="st0" d="M88.1,294.4c-18,14.8,11.5,144.4,11.5,144.4s6.6,197.7,20.5,206.7s45.1-0.8,57.4-2.5s1.6-123.9-16.4-169
	S157,363.3,157,363.3l97.6,18.9c0,0-59.1,50-56.6,60.7s65.6,46.8,77.1,48.4s33.6-65.6,53.3-111.6s-134.5-75.5-134.5-75.5l-21.3-40.2
	C172.6,264.1,106.1,279.6,88.1,294.4z"/>
<path class="st0" d="M137.1,648.9c0,0-6,20.8,0,20.8s16.9,6,33.7,4s11.9-22.8,0-25.8s-8.9-26.8-8.9-26.8c-4-7.9-22.8,2-22.8,2
	L137.1,648.9z"/>
<path class="st0" d="M221.6,483.2c0,0-10.2,19.1-4.4,20.4s15.2,9.4,32.1,11s16.4-19.8,5.4-25.2s-3.1-28.1-3.1-28.1
	c-2.2-8.6-22.7-2.9-22.7-2.9L221.6,483.2z"/>
<path class="st1" d="M99.2,116.8c1.6,3.3-5.7,44.3-5.7,44.3l6.6,11.5c0,0,37.7-14.8,32-17.2c-5.7-2.5-4.9-32.8-4.9-32.8
	S97.5,113.5,99.2,116.8z"/>
<circle class="st0" cx="113.4" cy="79.2" r="50.3"/>
<circle class="st0" cx="109.9" cy="32.1" r="20.8"/>
<path class="st0" d="M119,41.5c0.7,0.1,1.4,0.1,2.2,0.1c11.5,0,20.8-9.3,20.8-20.8C142,9.3,132.7,0,121.2,0c-0.7,0-1.4,0-2.2,0.1
	c11.4,1.2,19.7,11.4,18.5,22.9C136.5,32.8,128.8,40.5,119,41.5z"/>
<circle class="st1" cx="114.8" cy="103.7" r="34.5"/>
<path class="st2" d="M65.1,156.6c-10.7,2.5-28.7,28.7-28.7,28.7L65.1,214c0,0,20.5,77.1,23,80.4c16.1,21.5,88.6-26.2,88.6-26.2
	s-2.9-23.4-1.2-34.9c1.6-11-6.2-33.2-6.2-33.2s27.1-11.5,21.3-23s-41-37.7-55.8-28.7c-14.8,9-44.3,0-44.3,0S75.8,154.1,65.1,156.6z"
	/>
<path class="st1" d="M274.7,321.9c0,0,46.8,40.2,58.2,32S288.7,317,288.7,317L274.7,321.9z"/>
<path class="st1" d="M64.7,307.9c6.6,7.4,37.7-11.5,33.7-19.9s-28.8,8.4-28.8,8.4S58.2,300.6,64.7,307.9z"/>
<path class="st2" d="M65.1,196.8l-34.5,64c0,0,39.4,32.8,44.3,33.6s-9.8,22.1-9.8,22.1s-44.3-31.2-61.5-46.8s32.8-84.5,32.8-84.5
	l14.8-9L65.1,196.8z"/>
<path class="st2" d="M165.2,194.3l40.2,62.3c0,0,61.5,68.9,69.7,72.2c8.2,3.3,18-12.3,18-12.3l-73.8-89.4l-27.9-50l-10.7-4.1
	L165.2,194.3z"/>
<ellipse class="st0" cx="113.4" cy="62.8" rx="34.7" ry="20.8"/>
<path class="st2" d="M210.7,511.8c-2.4,0-4.3,1.9-4.3,4.3v146.2c0,2.4,1.9,4.3,4.3,4.3h498.7c2.4,0,4.3-1.9,4.3-4.3V516.1
	c0-2.4-1.9-4.3-4.3-4.3L210.7,511.8z"/>
<path class="st3" d="M217.1,655.9h485.8V522.5H217.1V655.9z"/>
<circle class="st4" cx="280.6" cy="589.2" r="41.4"/>
<path class="st3" d="M296.4,570.7h6.5L289.4,584c-4.9,4.8-12.7,4.8-17.6,0l-13.4-13.3h6.5l10.2,10.1c3.1,3.1,8.1,3.1,11.2,0
	L296.4,570.7z M264.7,607.7h-6.5l13.5-13.4c4.9-4.8,12.7-4.8,17.6,0l13.5,13.4h-6.5l-10.3-10.2c-3.1-3.1-8.1-3.1-11.2,0L264.7,607.7
	z"/>
<path class="st2" d="M275.6,43.4c-2.4,0-4.3,1.9-4.3,4.3v146.2c0,2.4,1.9,4.3,4.3,4.3h498.7c2.4,0,4.3-1.9,4.3-4.3V47.6
	c0-2.4-1.9-4.3-4.3-4.3L275.6,43.4z"/>
<path class="st3" d="M282.1,187.4h485.8V54.1H282.1V187.4z"/>
<path class="st4" d="M706.5,167.8c-3.9,0-7.1,3.2-7.1,7.1c0,3.9,3.2,7.1,7.1,7.1c0,0,0,0,0,0h28.4c3.9,0,7.1-3.2,7.1-7.1
	c0-3.9-3.2-7.1-7.1-7.1H706.5z"/>
<rect x="414.1" y="156" class="st2" width="328" height="1.9"/>
<circle class="st4" cx="345.5" cy="120.8" r="41.4"/>
<polygon class="st5" points="414.6,125.6 413.5,124.3 447.6,105.7 471,114.9 504.6,97.3 505.1,97.4 571.5,120.6 624.7,99.2 
	676.4,116.4 741.4,69.2 742.6,70.4 676.8,118.2 624.8,100.9 571.5,122.3 504.8,99 471.1,116.6 447.8,107.4 "/>
<path class="st2" d="M420.1,168.7c-3.4,0-6.1,2.7-6.1,6.1c0,3.4,2.7,6.1,6.1,6.1h63.5c3.4,0,6.1-2.7,6.1-6.1c0-3.4-2.7-6.1-6.1-6.1
	H420.1z"/>
<path class="st3" d="M362.1,115.9c0.8-5.2-3.2-8-8.6-9.8l1.7-7l-4.3-1.1l-1.7,6.8c-1.1-0.3-2.3-0.5-3.4-0.8l1.7-6.9l-4.3-1.1l-1.7,7
	c-0.9-0.2-1.8-0.4-2.7-0.6l0,0L333,101l-1.1,4.6c0,0,3.2,0.7,3.1,0.8c1.2,0.1,2.1,1.3,2,2.5l-2,8c0.2,0,0.3,0.1,0.4,0.1l-0.4-0.1
	l-2.8,11.2c-0.3,0.8-1.1,1.3-1.9,1c0,0,0,0,0,0c0,0.1-3.1-0.8-3.1-0.8l-2.1,4.9l5.6,1.4c1,0.3,2,0.5,3,0.8l-1.8,7.1l4.3,1.1l1.8-7
	c1.2,0.3,2.3,0.6,3.4,0.9l-1.7,7l4.3,1.1l1.8-7.1c7.3,1.4,12.8,0.8,15.1-5.8c1.9-5.3-0.1-8.4-3.9-10.4
	C359.5,121.6,361.6,119.7,362.1,115.9L362.1,115.9z M352.4,129.6c-1.3,5.3-10.2,2.4-13.1,1.7l2.3-9.4
	C344.5,122.7,353.8,124.1,352.4,129.6L352.4,129.6z M353.7,115.9c-1.2,4.8-8.6,2.4-11,1.8l2.1-8.5
	C347.2,109.7,355,110.8,353.7,115.9L353.7,115.9z"/>
<path class="st2" d="M471.8,277.6c-2.4,0-4.3,1.9-4.3,4.3v146.2c0,2.4,1.9,4.3,4.3,4.3h498.7c2.4,0,4.3-1.9,4.3-4.3V281.9
	c0-2.4-1.9-4.3-4.3-4.3L471.8,277.6z"/>
<path class="st3" d="M478.3,421.6H964V288.3H478.3V421.6z"/>
<ellipse transform="matrix(0.1602 -0.9871 0.9871 0.1602 104.5214 832.8142)" class="st4" cx="541.7" cy="355" rx="41.4" ry="41.4"/>
<polygon class="st3" points="541.7,382.2 558.4,358.7 541.7,368.5 541.7,368.5 524.9,358.7 541.7,382.2 541.7,382.2 541.7,382.2 
	541.7,382.2 "/>
<polygon class="st3" points="541.7,365.4 541.7,365.4 541.7,365.4 541.7,365.4 558.4,355.5 541.7,327.7 541.7,327.7 541.7,327.7 
	541.7,327.7 541.7,327.7 524.9,355.5 "/>
<text transform="matrix(0.8914 0 0 1 412 148)"><tspan x="0" y="0" class="st6 st7 st8">0</tspan><tspan x="9.6" y="0" class="st6 st7 st8 st9">	</tspan><tspan x="36" y="0" class="st6 st7 st8 st10">	</tspan><tspan x="72" y="0" class="st6 st7 st8">10</tspan><tspan x="86.9" y="0" class="st6 st7 st8 st11">	</tspan><tspan x="108" y="0" class="st6 st7 st8 st10">	</tspan><tspan x="144" y="0" class="st6 st7 st8">20</tspan><tspan x="161.8" y="0" class="st6 st7 st8 st12">	</tspan><tspan x="180" y="0" class="st6 st7 st8 st10">	</tspan><tspan x="216" y="0" class="st6 st7 st8">30</tspan><tspan x="233.6" y="0" class="st6 st7 st8 st12">	</tspan><tspan x="252" y="0" class="st6 st7 st8 st10">	</tspan><tspan x="288" y="0" class="st6 st7 st8">40</tspan><tspan x="305.6" y="0" class="st6 st7 st8 st13">	</tspan><tspan x="324" y="0" class="st6 st7 st8 st10">	</tspan><tspan x="360" y="0" class="st6 st7 st8">50</tspan></text>
<path class="st4" d="M901.5,398.8c-3.9,0-7.1,3.2-7.1,7.1c0,3.9,3.2,7.1,7.1,7.1c0,0,0,0,0,0h28.4c3.9,0,7.1-3.2,7.1-7.1
	c0-3.9-3.2-7.1-7.1-7.1H901.5z"/>
<rect x="609.1" y="387" class="st2" width="328" height="1.9"/>
<polygon class="st5" points="609.6,356.6 608.5,355.3 642.6,336.7 666,345.9 699.6,328.3 700.1,328.4 766.5,351.6 819.7,330.2 
	871.4,347.4 936.4,300.2 937.6,301.4 871.8,349.2 819.8,331.9 766.5,353.3 699.8,330 666.1,347.6 642.8,338.4 "/>
<path class="st2" d="M615.1,399.7c-3.4,0-6.1,2.7-6.1,6.1c0,3.4,2.7,6.1,6.1,6.1h63.5c3.4,0,6.1-2.7,6.1-6.1c0-3.4-2.7-6.1-6.1-6.1
	H615.1z"/>
<text transform="matrix(0.8914 0 0 1 607 379)"><tspan x="0" y="0" class="st6 st7 st8">0</tspan><tspan x="9.6" y="0" class="st6 st7 st8 st9">	</tspan><tspan x="36" y="0" class="st6 st7 st8 st10">	</tspan><tspan x="72" y="0" class="st6 st7 st8">10</tspan><tspan x="86.9" y="0" class="st6 st7 st8 st11">	</tspan><tspan x="108" y="0" class="st6 st7 st8 st10">	</tspan><tspan x="144" y="0" class="st6 st7 st8">20</tspan><tspan x="161.8" y="0" class="st6 st7 st8 st12">	</tspan><tspan x="180" y="0" class="st6 st7 st8 st10">	</tspan><tspan x="216" y="0" class="st6 st7 st8">30</tspan><tspan x="233.6" y="0" class="st6 st7 st8 st12">	</tspan><tspan x="252" y="0" class="st6 st7 st8 st10">	</tspan><tspan x="288" y="0" class="st6 st7 st8">40</tspan><tspan x="305.6" y="0" class="st6 st7 st8 st13">	</tspan><tspan x="324" y="0" class="st6 st7 st8 st10">	</tspan><tspan x="360" y="0" class="st6 st7 st8">50</tspan></text>
<path class="st4" d="M642.5,632.8c-3.9,0-7.1,3.2-7.1,7.1c0,3.9,3.2,7.1,7.1,7.1c0,0,0,0,0,0h28.4c3.9,0,7.1-3.2,7.1-7.1
	c0-3.9-3.2-7.1-7.1-7.1H642.5z"/>
<rect x="350.1" y="621" class="st2" width="328" height="1.9"/>
<polygon class="st5" points="350.6,590.6 349.5,589.3 383.6,570.7 407,579.9 440.6,562.3 441.1,562.4 507.5,585.6 560.7,564.2 
	612.4,581.4 677.4,534.2 678.6,535.4 612.8,583.2 560.8,565.9 507.5,587.3 440.8,564 407.1,581.6 383.8,572.4 "/>
<path class="st2" d="M356.1,633.7c-3.4,0-6.1,2.7-6.1,6.1c0,3.4,2.7,6.1,6.1,6.1h63.5c3.4,0,6.1-2.7,6.1-6.1c0-3.4-2.7-6.1-6.1-6.1
	H356.1z"/>
<text transform="matrix(0.8914 0 0 1 348 613)"><tspan x="0" y="0" class="st6 st7 st8">0</tspan><tspan x="9.6" y="0" class="st6 st7 st8 st9">	</tspan><tspan x="36" y="0" class="st6 st7 st8 st10">	</tspan><tspan x="72" y="0" class="st6 st7 st8">10</tspan><tspan x="86.9" y="0" class="st6 st7 st8 st11">	</tspan><tspan x="108" y="0" class="st6 st7 st8 st10">	</tspan><tspan x="144" y="0" class="st6 st7 st8">20</tspan><tspan x="161.8" y="0" class="st6 st7 st8 st12">	</tspan><tspan x="180" y="0" class="st6 st7 st8 st10">	</tspan><tspan x="216" y="0" class="st6 st7 st8">30</tspan><tspan x="233.6" y="0" class="st6 st7 st8 st12">	</tspan><tspan x="252" y="0" class="st6 st7 st8 st10">	</tspan><tspan x="288" y="0" class="st6 st7 st8">40</tspan><tspan x="305.6" y="0" class="st6 st7 st8 st13">	</tspan><tspan x="324" y="0" class="st6 st7 st8 st10">	</tspan><tspan x="360" y="0" class="st6 st7 st8">50</tspan></text>
</svg>
